<svg xmlns="http://www.w3.org/2000/svg" viewBox="0 0 960 720" role="img" aria-labelledby="title desc">
  <title id="title">Open Library Hero Placeholder</title>
  <desc id="desc">An abstract illustration of people sharing books.</desc>
  <defs>
    <linearGradient id="bg" x1="0%" y1="0%" x2="100%" y2="100%">
      <stop offset="0%" stop-color="#f8fff5"/>
      <stop offset="100%" stop-color="#d9f5e5"/>
    </linearGradient>
  </defs>
  <rect width="960" height="720" rx="40" fill="url(#bg)"/>
  <circle cx="220" cy="190" r="88" fill="#198754" opacity="0.16"/>
  <circle cx="756" cy="164" r="104" fill="#0d6efd" opacity="0.12"/>
  <circle cx="752" cy="560" r="132" fill="#ffc107" opacity="0.14"/>
  <rect x="158" y="180" width="222" height="288" rx="24" fill="#ffffff" stroke="#198754" stroke-width="8"/>
  <rect x="208" y="236" width="124" height="20" rx="10" fill="#adb5bd"/>
  <rect x="208" y="276" width="92" height="14" rx="7" fill="#ced4da"/>
  <rect x="208" y="306" width="108" height="14" rx="7" fill="#ced4da"/>
  <rect x="472" y="138" width="230" height="300" rx="24" fill="#ffffff" stroke="#0d6efd" stroke-width="8"/>
  <rect x="524" y="198" width="126" height="20" rx="10" fill="#adb5bd"/>
  <rect x="524" y="238" width="148" height="14" rx="7" fill="#ced4da"/>
  <rect x="524" y="268" width="96" height="14" rx="7" fill="#ced4da"/>
  <path d="M358 340c38-58 80-88 128-88 48 0 96 30 142 88" fill="none" stroke="#198754" stroke-width="18" stroke-linecap="round"/>
  <circle cx="420" cy="426" r="52" fill="#198754"/>
  <circle cx="642" cy="426" r="52" fill="#0d6efd"/>
  <path d="M374 520h92c18 0 32 14 32 32v42H342v-42c0-18 14-32 32-32Z" fill="#198754"/>
  <path d="M596 520h92c18 0 32 14 32 32v42H564v-42c0-18 14-32 32-32Z" fill="#0d6efd"/>
  <path d="M470 458h120" stroke="#ffc107" stroke-width="14" stroke-linecap="round"/>
  <path d="M516 412l74 46-74 46" fill="none" stroke="#ffc107" stroke-width="14" stroke-linecap="round" stroke-linejoin="round"/>
</svg>
